<?xml version="1.0" encoding="UTF-8"?>
<svg version="1.1" xmlns="http://www.w3.org/2000/svg" width="32" height="32">
<path d="M0 0 C0.598125 0.33 1.19625 0.66 1.8125 1 C4.05386471 2.20787988 4.05386471 2.20787988 7 2 C7.33 1.34 7.66 0.68 8 0 C8.66 0 9.32 0 10 0 C10 1.32 10 2.64 10 4 C11.65 3.67 13.3 3.34 15 3 C15 3.99 15 4.98 15 6 C16.98 6 18.96 6 21 6 C21.02887236 9.81248426 21.04675492 13.6249407 21.0625 17.4375 C21.07087891 18.52611328 21.07925781 19.61472656 21.08789062 20.73632812 C21.09111328 21.77080078 21.09433594 22.80527344 21.09765625 23.87109375 C21.10289307 24.82943115 21.10812988 25.78776855 21.11352539 26.77514648 C21 29 21 29 20 30 C17.79349344 30.10012401 15.58377614 30.1308118 13.375 30.1328125 C12.71290527 30.13376923 12.05081055 30.13472595 11.36865234 30.13571167 C9.96647039 30.13639326 8.5642853 30.13454042 7.16210938 30.13037109 C5.00904287 30.12502246 2.85618498 30.1303167 0.703125 30.13671875 C-0.65625046 30.13605796 -2.0156258 30.13477679 -3.375 30.1328125 C-4.62023437 30.13168457 -5.86546875 30.13055664 -7.1484375 30.12939453 C-10 30 -10 30 -11 29 C-11.08713831 27.29227642 -11.10700007 25.58101351 -11.09765625 23.87109375 C-11.09443359 22.83662109 -11.09121094 21.80214844 -11.08789062 20.73632812 C-11.07951172 19.64771484 -11.07113281 18.55910156 -11.0625 17.4375 C-11.05798828 16.34501953 -11.05347656 15.25253906 -11.04882812 14.12695312 C-11.03699826 11.41791505 -11.02051543 8.70898401 -11 6 C-10.34 6 -9.68 6 -9 6 C-9 5.34 -9 4.68 -9 4 C-5.7 4 -2.4 4 1 4 C0.67 2.68 0.34 1.36 0 0 Z " fill="#8B9296" transform="translate(11,2)"/>
<path d="M0 0 C0.598125 0.33 1.19625 0.66 1.8125 1 C4.05386471 2.20787988 4.05386471 2.20787988 7 2 C7.33 1.34 7.66 0.68 8 0 C8.66 0 9.32 0 10 0 C10 1.32 10 2.64 10 4 C11.65 3.67 13.3 3.34 15 3 C15 3.99 15 4.98 15 6 C14.01 6.66 13.02 7.32 12 8 C11.731875 8.66 11.46375 9.32 11.1875 10 C10 12 10 12 7.41796875 13.1484375 C3.51235754 14.12149264 0.08020422 14.00825622 -3.875 13.625 C-4.56335938 13.56828125 -5.25171875 13.5115625 -5.9609375 13.453125 C-7.64157689 13.31307172 -9.32096005 13.15807755 -11 13 C-11 10.69 -11 8.38 -11 6 C-10.34 6 -9.68 6 -9 6 C-9 5.34 -9 4.68 -9 4 C-5.7 4 -2.4 4 1 4 C0.67 2.68 0.34 1.36 0 0 Z " fill="#A4B3B8" transform="translate(11,2)"/>
<path d="M0 0 C1.875 1.125 1.875 1.125 3 3 C3.39365568 6.14924548 3.52854531 8.11909116 1.875 10.875 C-0.88090884 12.52854531 -2.85075452 12.39365568 -6 12 C-7.875 10.875 -7.875 10.875 -9 9 C-9.39365568 5.85075452 -9.52854531 3.88090884 -7.875 1.125 C-5.11909116 -0.52854531 -3.14924548 -0.39365568 0 0 Z " fill="#1E444C" transform="translate(21,16)"/>
<path d="M0 0 C4.29 0 8.58 0 13 0 C12.34 1.32 11.68 2.64 11 4 C11.31168072 7.55316022 11.87257811 10.61773432 13 14 C9.7 14 6.4 14 3 14 C3 10.04 3 6.08 3 2 C2.01 2 1.02 2 0 2 C0 1.34 0 0.68 0 0 Z " fill="#262626" transform="translate(0,15)"/>
<path d="M0 0 C0.598125 0.33 1.19625 0.66 1.8125 1 C4.05386471 2.20787988 4.05386471 2.20787988 7 2 C7.33 1.34 7.66 0.68 8 0 C8.66 0 9.32 0 10 0 C10 1.32 10 2.64 10 4 C11.65 3.67 13.3 3.34 15 3 C15 3.99 15 4.98 15 6 C14.01 6.66 13.02 7.32 12 8 C11.566875 8.99 11.566875 8.99 11.125 10 C9.59814752 12.71440441 7.89486068 13.08583347 5 14 C4.67 13.01 4.34 12.02 4 11 C1.99983534 9.79117904 1.99983534 9.79117904 0 9 C0.99 8.67 1.98 8.34 3 8 C2.505 7.05125 2.01 6.1025 1.5 5.125 C0 2 0 2 0 0 Z " fill="#FC9A0F" transform="translate(11,2)"/>
<path d="M0 0 C2.01459159 0.01062175 4.02727049 0.15963795 6.03515625 0.32421875 C6.03515625 2.63421875 6.03515625 4.94421875 6.03515625 7.32421875 C5.09542969 7.41509766 5.09542969 7.41509766 4.13671875 7.5078125 C3.31945313 7.59160156 2.5021875 7.67539063 1.66015625 7.76171875 C0.84804688 7.84292969 0.0359375 7.92414062 -0.80078125 8.0078125 C-3.0075718 8.21511989 -3.0075718 8.21511989 -4.96484375 9.32421875 C-7.08984375 8.38671875 -7.08984375 8.38671875 -8.96484375 7.32421875 C-8.36671875 7.09734375 -7.76859375 6.87046875 -7.15234375 6.63671875 C-4.73212397 5.45878148 -4.73212397 5.45878148 -3.71484375 2.69921875 C-1.96484375 0.32421875 -1.96484375 0.32421875 0 0 Z " fill="#797B79" transform="translate(25.96484375,7.67578125)"/>
<path d="M0 0 C2.64 0 5.28 0 8 0 C8 0.66 8 1.32 8 2 C7.01 2 6.02 2 5 2 C5 5.96 5 9.92 5 14 C3.02 14 1.04 14 -1 14 C-0.66226562 13.44828125 -0.32453125 12.8965625 0.0234375 12.328125 C1.21101261 9.49694595 1.02275703 7.77295344 0.625 4.75 C0.51414062 3.85796875 0.40328125 2.9659375 0.2890625 2.046875 C0.19367187 1.37140625 0.09828125 0.6959375 0 0 Z " fill="#2C2C2C" transform="translate(24,15)"/>
<path d="M0 0 C3.12290635 0.48578543 5.99580359 0.9986012 9 2 C8.25 4.4375 8.25 4.4375 7 7 C5 7.75 5 7.75 3 8 C2.01 8.495 2.01 8.495 1 9 C0.67 6.03 0.34 3.06 0 0 Z " fill="#F2A82C" transform="translate(15,7)"/>
<path d="M0 0 C0.99 0 1.98 0 3 0 C3 3.96 3 7.92 3 12 C2.01 12 1.02 12 0 12 C0 8.04 0 4.08 0 0 Z " fill="#5D5D5D" transform="translate(29,17)"/>
<path d="M0 0 C0.99 0 1.98 0 3 0 C3 3.96 3 7.92 3 12 C2.01 12 1.02 12 0 12 C0 8.04 0 4.08 0 0 Z " fill="#5E5E5E" transform="translate(0,17)"/>
<path d="M0 0 C2.64 0 5.28 0 8 0 C8 2.31 8 4.62 8 7 C5.36 7 2.72 7 0 7 C1.32 6.67 2.64 6.34 4 6 C4 4.35 4 2.7 4 1 C2.68 0.67 1.36 0.34 0 0 Z " fill="#A9BCC2" transform="translate(24,8)"/>
<path d="M0 0 C0.99 0.33 1.98 0.66 3 1 C2.814375 1.78375 2.62875 2.5675 2.4375 3.375 C1.74037734 5.97089775 1.74037734 5.97089775 3 8 C1.68 7.67 0.36 7.34 -1 7 C-1.625 4.625 -1.625 4.625 -2 2 C-1.34 1.34 -0.68 0.68 0 0 Z " fill="#448695" transform="translate(15,18)"/>
<path d="M0 0 C0.66 0 1.32 0 2 0 C2 1.32 2 2.64 2 4 C3.65 3.67 5.3 3.34 7 3 C7 3.99 7 4.98 7 6 C5.02 6 3.04 6 1 6 C1 5.34 1 4.68 1 4 C0.34 4 -0.32 4 -1 4 C-0.67 2.68 -0.34 1.36 0 0 Z " fill="#FF8E00" transform="translate(19,2)"/>
<path d="M0 0 C0.33 0 0.66 0 1 0 C1 2.64 1 5.28 1 8 C-0.65 8 -2.3 8 -4 8 C-2.68 5.36 -1.36 2.72 0 0 Z " fill="#242424" transform="translate(27,21)"/>
<path d="M0 0 C1.98 0.66 3.96 1.32 6 2 C5.67 2.99 5.34 3.98 5 5 C4.01 5.33 3.02 5.66 2 6 C1.34 4.02 0.68 2.04 0 0 Z " fill="#FFE34E" transform="translate(15,7)"/>
</svg>
